# xmcd CD database file
#
# Track frame offsets:
#	150
#	13972
#	36582
#	58170
#	77315
#	91602
#	107655
#	127065
#	146655
#	162677
#
# Disc length: 2461 seconds
#
# Revision: 1
# Processed by: cddbd v1.5.2PL0 Copyright (c) Steve Scherf et al.
# Submitted via: CDex 1.78
#
DISCID=88099b0a
DTITLE=Millie Jackson - It's Over!?
DYEAR=1995
DGENRE=R&B
TTITLE0=I Can't See Me, Without You
TTITLE1=Don't Give Up On Me, Now
TTITLE2=The Lies That We Live
TTITLE3=I Just Watched My Love Burn Down
TTITLE4=What's In It For Me
TTITLE5=You Ain't Killing Me (The Way I Want To Die)
TTITLE6=Breaking Up Somebody's Home
TTITLE7=Missing You
TTITLE8=When Love Dies
TTITLE9=I Don't Want To Be Your Friend
EXTD=YEAR: 1995
EXTT0=
EXTT1=
EXTT2=
EXTT3=
EXTT4=
EXTT5=
EXTT6=
EXTT7=
EXTT8=
EXTT9=
PLAYORDER=
